<?xml version="1.0" standalone="no"?>
<!DOCTYPE svg PUBLIC "-//W3C//DTD SVG 20010904//EN"
 "http://www.w3.org/TR/2001/REC-SVG-20010904/DTD/svg10.dtd">
<svg version="1.0" xmlns="http://www.w3.org/2000/svg"
 width="522.000000pt" height="522.000000pt" viewBox="0 0 522.000000 522.000000"
 preserveAspectRatio="xMidYMid meet">
<metadata>
Created by potrace 1.14, written by Peter Selinger 2001-2017
</metadata>
<g transform="translate(0.000000,522.000000) scale(0.100000,-0.100000)"
fill="#000000" stroke="none">
<path d="M4497 5144 c-1 -1 -45 -5 -97 -8 -84 -4 -203 -17 -310 -32 -177 -26
-471 -102 -655 -171 -442 -164 -856 -415 -1220 -739 l-102 -90 -59 7 c-93 12
-390 3 -479 -15 -119 -23 -125 -24 -195 -45 -445 -130 -831 -468 -1056 -926
-74 -152 -118 -278 -149 -430 -20 -97 -21 -113 -9 -137 25 -49 54 -61 136 -53
40 3 80 8 88 10 8 2 44 7 80 10 36 4 72 8 80 10 8 2 44 6 80 10 63 7 93 10
175 21 22 3 58 7 80 10 22 2 54 6 70 8 17 2 60 7 97 11 l67 7 110 -110 c61
-61 111 -115 111 -120 0 -6 -37 -86 -82 -178 -81 -163 -83 -169 -82 -238 0
-54 6 -82 24 -116 15 -29 126 -147 314 -335 260 -259 297 -292 343 -309 58
-20 141 -23 173 -6 11 6 20 9 20 6 0 -2 72 31 160 75 l161 80 140 -141 c77
-77 148 -141 157 -142 9 0 24 -2 32 -3 50 -5 443 240 730 455 139 105 356 284
410 339 9 9 33 32 54 51 l38 35 -5 -145 c-6 -152 -9 -177 -33 -275 -99 -399
-346 -729 -717 -958 -169 -104 -516 -232 -483 -179 2 4 7 36 11 72 4 36 9 76
11 90 3 14 7 63 10 110 l7 86 -32 26 c-24 21 -39 26 -68 23 -55 -5 -79 -38
-88 -122 -4 -37 -8 -75 -10 -83 -2 -8 -6 -44 -10 -80 -4 -36 -9 -72 -10 -82
-6 -29 -18 -152 -17 -181 0 -33 33 -73 69 -82 44 -11 238 35 382 90 259 99
460 226 654 414 294 284 462 622 504 1016 9 76 8 303 0 375 -7 61 -17 45 117
190 93 102 250 313 349 472 282 451 480 993 542 1488 4 30 9 62 10 71 16 83
22 451 11 569 -16 163 -24 207 -38 230 -21 34 -58 42 -238 56 -82 6 -358 12
-363 8z m431 -196 c6 -1 12 -11 13 -22 0 -12 2 -34 5 -51 7 -44 8 -464 1 -505
-3 -19 -8 -66 -12 -105 -38 -406 -187 -866 -406 -1257 -216 -383 -545 -781
-904 -1093 -49 -43 -103 -90 -120 -104 -121 -107 -523 -386 -711 -495 l-81
-47 -721 722 c-397 397 -722 725 -722 730 0 9 66 121 128 219 87 137 135 206
257 368 71 95 140 188 153 205 44 60 11 134 -64 144 -44 5 -55 -2 -120 -84
-21 -26 -42 -50 -45 -53 -44 -40 -339 -475 -429 -633 -30 -53 -62 -99 -70
-101 -8 -3 -44 -8 -80 -11 -36 -3 -76 -7 -90 -10 -35 -6 -96 -14 -157 -20 -29
-2 -65 -7 -80 -9 -16 -2 -55 -7 -88 -11 -32 -4 -66 -8 -75 -10 -8 -1 -44 -6
-79 -10 l-63 -7 7 33 c15 70 79 238 127 336 158 323 394 564 697 713 101 50
248 101 341 120 30 5 66 12 80 15 96 19 316 24 435 10 129 -15 104 -28 302
149 419 373 957 660 1484 790 79 20 162 38 184 41 22 4 47 8 55 10 8 2 38 7
65 11 28 3 59 8 69 10 10 2 58 6 105 10 47 4 88 8 90 10 4 4 489 -4 519 -8z
m-2947 -3211 c131 -132 239 -242 239 -247 0 -10 -245 -130 -265 -130 -9 0 -26
5 -38 11 -36 20 -557 548 -558 566 -3 35 3 50 63 172 l61 123 129 -128 c71
-71 237 -236 369 -367z"/>
<path d="M3325 4149 c-220 -30 -420 -166 -542 -369 -26 -43 -69 -169 -79 -230
-10 -70 -6 -190 11 -268 30 -146 97 -267 209 -378 146 -145 309 -207 521 -200
203 8 348 68 480 202 119 119 181 236 212 397 81 429 -241 831 -682 850 -44 2
-102 0 -130 -4z m247 -198 c282 -95 451 -381 381 -649 -66 -255 -318 -441
-566 -418 -278 26 -512 277 -510 548 2 205 138 409 326 493 122 53 258 63 369
26z"/>
<path d="M810 1405 c-115 -32 -204 -90 -308 -200 -207 -217 -387 -617 -418
-930 -13 -124 -6 -153 38 -179 25 -15 43 -17 107 -11 114 10 137 13 204 31
573 145 980 478 980 799 0 102 -47 226 -120 316 -47 58 -149 129 -228 159 -71
26 -189 33 -255 15z m197 -191 c107 -36 190 -129 213 -237 29 -143 -36 -259
-224 -401 -187 -141 -406 -240 -620 -282 -44 -8 -87 -17 -94 -20 -16 -5 -10
44 19 158 59 233 164 442 312 620 59 72 88 99 136 130 78 50 171 61 258 32z"/>
</g>
</svg>
